<svg width="24" height="19" fill="none" xmlns="http://www.w3.org/2000/svg"><path d="M.75 3.759h6.68a3.006 3.006 0 002.903 2.259 3.006 3.006 0 002.903-2.26H23.25a.75.75 0 000-1.5H13.236A3.006 3.006 0 0010.333 0 3.006 3.006 0 007.43 2.259H.75a.75.75 0 000 1.5zM10.333 1.5a1.51 1.51 0 011.509 1.509 1.51 1.51 0 01-1.509 1.509 1.51 1.51 0 01-1.509-1.51A1.51 1.51 0 0110.333 1.5zM23.25 8.259h-1.606A3.006 3.006 0 0018.74 6a3.006 3.006 0 00-2.902 2.259H.75a.75.75 0 000 1.5h15.089a3.006 3.006 0 002.902 2.259 3.006 3.006 0 002.903-2.26h1.606a.75.75 0 000-1.5zm-4.509 2.259a1.51 1.51 0 01-1.509-1.51 1.51 1.51 0 011.51-1.508 1.51 1.51 0 011.508 1.509 1.51 1.51 0 01-1.509 1.509zM23.25 14.259H8.718A3.005 3.005 0 005.816 12a3.006 3.006 0 00-2.902 2.259H.75a.75.75 0 000 1.5h2.164a3.006 3.006 0 002.902 2.259 3.005 3.005 0 002.902-2.26H23.25a.75.75 0 000-1.5zM5.816 16.518a1.51 1.51 0 01-1.508-1.51A1.51 1.51 0 015.816 13.5a1.51 1.51 0 011.508 1.509 1.51 1.51 0 01-1.508 1.509z" fill="#fff"/></svg>