<svg width="131" height="25" viewBox="0 0 131 25" fill="none" xmlns="http://www.w3.org/2000/svg">
<path d="M30.48 19V4.8H35.64C36.8 4.8 37.8133 4.98667 38.68 5.36C39.56 5.73333 40.2933 6.24 40.88 6.88C41.4667 7.52 41.9067 8.27333 42.2 9.14C42.4933 9.99333 42.64 10.9067 42.64 11.88C42.64 12.96 42.4733 13.94 42.14 14.82C41.82 15.6867 41.3533 16.4333 40.74 17.06C40.1267 17.6733 39.3867 18.1533 38.52 18.5C37.6667 18.8333 36.7067 19 35.64 19H30.48ZM39.86 11.88C39.86 11.2 39.7667 10.5733 39.58 10C39.3933 9.42667 39.12 8.93333 38.76 8.52C38.4 8.10667 37.9533 7.78667 37.42 7.56C36.9 7.33333 36.3067 7.22 35.64 7.22H33.24V16.58H35.64C36.32 16.58 36.92 16.46 37.44 16.22C37.9733 15.98 38.4133 15.6533 38.76 15.24C39.12 14.8133 39.3933 14.3133 39.58 13.74C39.7667 13.1667 39.86 12.5467 39.86 11.88ZM49.3764 19.2C48.5231 19.2 47.7564 19.0533 47.0764 18.76C46.3964 18.4667 45.8164 18.0733 45.3364 17.58C44.8697 17.0733 44.5097 16.4933 44.2564 15.84C44.0031 15.1867 43.8764 14.5 43.8764 13.78C43.8764 13.0467 44.0031 12.3533 44.2564 11.7C44.5097 11.0467 44.8697 10.4733 45.3364 9.98C45.8164 9.47333 46.3964 9.07333 47.0764 8.78C47.7564 8.48667 48.5231 8.34 49.3764 8.34C50.2297 8.34 50.9897 8.48667 51.6564 8.78C52.3364 9.07333 52.9097 9.47333 53.3764 9.98C53.8564 10.4733 54.2231 11.0467 54.4764 11.7C54.7297 12.3533 54.8564 13.0467 54.8564 13.78C54.8564 14.5 54.7297 15.1867 54.4764 15.84C54.2231 16.4933 53.8631 17.0733 53.3964 17.58C52.9297 18.0733 52.3564 18.4667 51.6764 18.76C50.9964 19.0533 50.2297 19.2 49.3764 19.2ZM46.6364 13.78C46.6364 14.2467 46.7031 14.6733 46.8364 15.06C46.9831 15.4333 47.1764 15.76 47.4164 16.04C47.6697 16.32 47.9631 16.54 48.2964 16.7C48.6297 16.8467 48.9897 16.92 49.3764 16.92C49.7631 16.92 50.1231 16.8467 50.4564 16.7C50.7897 16.54 51.0764 16.32 51.3164 16.04C51.5697 15.76 51.7631 15.4267 51.8964 15.04C52.0431 14.6533 52.1164 14.2267 52.1164 13.76C52.1164 13.3067 52.0431 12.8867 51.8964 12.5C51.7631 12.1133 51.5697 11.78 51.3164 11.5C51.0764 11.22 50.7897 11.0067 50.4564 10.86C50.1231 10.7 49.7631 10.62 49.3764 10.62C48.9897 10.62 48.6297 10.7 48.2964 10.86C47.9631 11.02 47.6697 11.24 47.4164 11.52C47.1764 11.8 46.9831 12.1333 46.8364 12.52C46.7031 12.9067 46.6364 13.3267 46.6364 13.78ZM62.9053 10.84C62.092 10.8533 61.3653 11.0133 60.7253 11.32C60.0853 11.6133 59.6253 12.06 59.3453 12.66V19H56.6653V8.52H59.1253V10.76C59.312 10.4 59.532 10.08 59.7853 9.8C60.0386 9.50667 60.312 9.25333 60.6053 9.04C60.8986 8.82667 61.192 8.66667 61.4853 8.56C61.792 8.44 62.0853 8.38 62.3653 8.38C62.512 8.38 62.6186 8.38 62.6853 8.38C62.7653 8.38 62.8386 8.38667 62.9053 8.4V10.84ZM68.7123 19.2C67.859 19.2 67.0923 19.0533 66.4123 18.76C65.7323 18.4667 65.1523 18.0733 64.6723 17.58C64.2057 17.0733 63.8457 16.4933 63.5923 15.84C63.339 15.1867 63.2123 14.5 63.2123 13.78C63.2123 13.0467 63.339 12.3533 63.5923 11.7C63.8457 11.0467 64.2057 10.4733 64.6723 9.98C65.1523 9.47333 65.7323 9.07333 66.4123 8.78C67.0923 8.48667 67.859 8.34 68.7123 8.34C69.5657 8.34 70.3257 8.48667 70.9923 8.78C71.6723 9.07333 72.2457 9.47333 72.7123 9.98C73.1923 10.4733 73.559 11.0467 73.8123 11.7C74.0657 12.3533 74.1923 13.0467 74.1923 13.78C74.1923 14.5 74.0657 15.1867 73.8123 15.84C73.559 16.4933 73.199 17.0733 72.7323 17.58C72.2657 18.0733 71.6923 18.4667 71.0123 18.76C70.3323 19.0533 69.5657 19.2 68.7123 19.2ZM65.9723 13.78C65.9723 14.2467 66.039 14.6733 66.1723 15.06C66.319 15.4333 66.5123 15.76 66.7523 16.04C67.0057 16.32 67.299 16.54 67.6323 16.7C67.9657 16.8467 68.3257 16.92 68.7123 16.92C69.099 16.92 69.459 16.8467 69.7923 16.7C70.1257 16.54 70.4123 16.32 70.6523 16.04C70.9057 15.76 71.099 15.4267 71.2323 15.04C71.379 14.6533 71.4523 14.2267 71.4523 13.76C71.4523 13.3067 71.379 12.8867 71.2323 12.5C71.099 12.1133 70.9057 11.78 70.6523 11.5C70.4123 11.22 70.1257 11.0067 69.7923 10.86C69.459 10.7 69.099 10.62 68.7123 10.62C68.3257 10.62 67.9657 10.7 67.6323 10.86C67.299 11.02 67.0057 11.24 66.7523 11.52C66.5123 11.8 66.319 12.1333 66.1723 12.52C66.039 12.9067 65.9723 13.3267 65.9723 13.78ZM82.2813 19.2C81.4546 19.2 80.7346 19.02 80.1213 18.66C79.5079 18.2867 79.0279 17.7867 78.6813 17.16V23.26H76.0013V8.52H78.3413V10.32C78.7279 9.70667 79.2279 9.22667 79.8413 8.88C80.4546 8.52 81.1613 8.34 81.9613 8.34C82.6679 8.34 83.3213 8.48667 83.9213 8.78C84.5213 9.06 85.0346 9.44667 85.4613 9.94C85.9013 10.42 86.2413 10.9933 86.4813 11.66C86.7346 12.3133 86.8613 13.0067 86.8613 13.74C86.8613 14.5 86.7479 15.2133 86.5213 15.88C86.2946 16.5467 85.9746 17.1267 85.5613 17.62C85.1613 18.1133 84.6813 18.5 84.1213 18.78C83.5613 19.06 82.9479 19.2 82.2813 19.2ZM81.3813 16.92C81.7813 16.92 82.1479 16.8333 82.4813 16.66C82.8279 16.4867 83.1213 16.2533 83.3613 15.96C83.6013 15.6667 83.7879 15.3267 83.9213 14.94C84.0546 14.5533 84.1213 14.1533 84.1213 13.74C84.1213 13.3 84.0479 12.8933 83.9013 12.52C83.7546 12.1333 83.5479 11.8 83.2813 11.52C83.0279 11.24 82.7213 11.02 82.3613 10.86C82.0146 10.7 81.6346 10.62 81.2213 10.62C80.9679 10.62 80.7079 10.6667 80.4413 10.76C80.1746 10.84 79.9279 10.96 79.7013 11.12C79.4746 11.28 79.2679 11.4667 79.0813 11.68C78.9079 11.8933 78.7746 12.1267 78.6813 12.38V14.84C78.9213 15.44 79.2879 15.94 79.7812 16.34C80.2746 16.7267 80.8079 16.92 81.3813 16.92ZM93.517 19.2C92.6637 19.2 91.897 19.0533 91.217 18.76C90.537 18.4667 89.957 18.0733 89.477 17.58C89.0104 17.0733 88.6504 16.4933 88.397 15.84C88.1437 15.1867 88.017 14.5 88.017 13.78C88.017 13.0467 88.1437 12.3533 88.397 11.7C88.6504 11.0467 89.0104 10.4733 89.477 9.98C89.957 9.47333 90.537 9.07333 91.217 8.78C91.897 8.48667 92.6637 8.34 93.517 8.34C94.3704 8.34 95.1304 8.48667 95.797 8.78C96.477 9.07333 97.0504 9.47333 97.517 9.98C97.997 10.4733 98.3637 11.0467 98.617 11.7C98.8704 12.3533 98.997 13.0467 98.997 13.78C98.997 14.5 98.8704 15.1867 98.617 15.84C98.3637 16.4933 98.0037 17.0733 97.537 17.58C97.0704 18.0733 96.497 18.4667 95.817 18.76C95.137 19.0533 94.3704 19.2 93.517 19.2ZM90.777 13.78C90.777 14.2467 90.8437 14.6733 90.977 15.06C91.1237 15.4333 91.317 15.76 91.557 16.04C91.8104 16.32 92.1037 16.54 92.437 16.7C92.7704 16.8467 93.1304 16.92 93.517 16.92C93.9037 16.92 94.2637 16.8467 94.597 16.7C94.9304 16.54 95.217 16.32 95.457 16.04C95.7104 15.76 95.9037 15.4267 96.037 15.04C96.1837 14.6533 96.257 14.2267 96.257 13.76C96.257 13.3067 96.1837 12.8867 96.037 12.5C95.9037 12.1133 95.7104 11.78 95.457 11.5C95.217 11.22 94.9304 11.0067 94.597 10.86C94.2637 10.7 93.9037 10.62 93.517 10.62C93.1304 10.62 92.7704 10.7 92.437 10.86C92.1037 11.02 91.8104 11.24 91.557 11.52C91.317 11.8 91.1237 12.1333 90.977 12.52C90.8437 12.9067 90.777 13.3267 90.777 13.78ZM117.086 19H114.406V13.12C114.406 12.28 114.259 11.6667 113.966 11.28C113.686 10.8933 113.293 10.7 112.786 10.7C112.253 10.7 111.753 10.9067 111.286 11.32C110.819 11.72 110.486 12.2467 110.286 12.9V19H107.606V13.12C107.606 12.28 107.459 11.6667 107.166 11.28C106.886 10.8933 106.493 10.7 105.986 10.7C105.466 10.7 104.966 10.9 104.486 11.3C104.019 11.7 103.686 12.2267 103.486 12.88V19H100.806V8.52H103.226V10.46C103.613 9.78 104.139 9.26 104.806 8.9C105.486 8.52667 106.259 8.34 107.126 8.34C108.006 8.34 108.686 8.55333 109.166 8.98C109.646 9.40667 109.953 9.93333 110.086 10.56C110.513 9.84 111.053 9.29333 111.706 8.92C112.359 8.53333 113.106 8.34 113.946 8.34C114.586 8.34 115.113 8.46 115.526 8.7C115.939 8.94 116.259 9.25333 116.486 9.64C116.713 10.0267 116.866 10.4667 116.946 10.96C117.039 11.4533 117.086 11.9533 117.086 12.46V19ZM124.259 19.2C123.406 19.2 122.639 19.0533 121.959 18.76C121.279 18.4667 120.699 18.0733 120.219 17.58C119.753 17.0733 119.393 16.4933 119.139 15.84C118.886 15.1867 118.759 14.5 118.759 13.78C118.759 13.0467 118.886 12.3533 119.139 11.7C119.393 11.0467 119.753 10.4733 120.219 9.98C120.699 9.47333 121.279 9.07333 121.959 8.78C122.639 8.48667 123.406 8.34 124.259 8.34C125.113 8.34 125.873 8.48667 126.539 8.78C127.219 9.07333 127.793 9.47333 128.259 9.98C128.739 10.4733 129.106 11.0467 129.359 11.7C129.613 12.3533 129.739 13.0467 129.739 13.78C129.739 14.5 129.613 15.1867 129.359 15.84C129.106 16.4933 128.746 17.0733 128.279 17.58C127.813 18.0733 127.239 18.4667 126.559 18.76C125.879 19.0533 125.113 19.2 124.259 19.2ZM121.519 13.78C121.519 14.2467 121.586 14.6733 121.719 15.06C121.866 15.4333 122.059 15.76 122.299 16.04C122.553 16.32 122.846 16.54 123.179 16.7C123.513 16.8467 123.873 16.92 124.259 16.92C124.646 16.92 125.006 16.8467 125.339 16.7C125.673 16.54 125.959 16.32 126.199 16.04C126.453 15.76 126.646 15.4267 126.779 15.04C126.926 14.6533 126.999 14.2267 126.999 13.76C126.999 13.3067 126.926 12.8867 126.779 12.5C126.646 12.1133 126.453 11.78 126.199 11.5C125.959 11.22 125.673 11.0067 125.339 10.86C125.006 10.7 124.646 10.62 124.259 10.62C123.873 10.62 123.513 10.7 123.179 10.86C122.846 11.02 122.553 11.24 122.299 11.52C122.059 11.8 121.866 12.1333 121.719 12.52C121.586 12.9067 121.519 13.3267 121.519 13.78Z" fill="black"/>
<path d="M4.29675 22.4468C5.25589 23.0879 6.34005 23.5183 7.47772 23.7096C8.61538 23.9009 9.78069 23.8489 10.8968 23.5568C10.9787 23.5408 11.0548 23.5028 11.1168 23.4468C11.1672 23.4045 11.2309 23.3813 11.2968 23.3813C11.3626 23.3813 11.4263 23.4045 11.4768 23.4468C11.5107 23.4848 11.5523 23.5151 11.5989 23.5358C11.6454 23.5565 11.6958 23.5671 11.7468 23.5668C13.8757 24.1404 16.1452 23.8454 18.0568 22.7468C19.9368 21.5468 21.1968 19.4268 21.7768 16.4568C21.7956 16.3545 21.7826 16.249 21.7397 16.1542C21.6968 16.0595 21.626 15.9802 21.5368 15.9268C21.4448 15.8743 21.338 15.8537 21.2331 15.8681C21.1282 15.8826 21.0311 15.9314 20.9568 16.0068C19.6847 17.0817 18.2229 17.9092 16.6468 18.4468C16.8693 17.6951 16.9119 16.9015 16.7712 16.1302C16.6305 15.3589 16.3104 14.6316 15.8368 14.0068C15.7891 13.9427 15.7274 13.8904 15.6563 13.8539C15.5852 13.8175 15.5066 13.798 15.4268 13.7968L15.3668 13.7968C15.2782 13.8072 15.1941 13.8416 15.1236 13.8962C15.0531 13.9508 14.9989 14.0236 14.9668 14.1068C14.2668 15.8068 12.9668 18.2968 12.1368 18.8068C11.1821 18.5716 10.3019 18.1004 9.57675 17.4365C8.85164 16.7725 8.30492 15.9371 7.98675 15.0068C7.95751 14.8919 7.8891 14.7907 7.79332 14.7207C7.69753 14.6508 7.58036 14.6164 7.46195 14.6235C7.34355 14.6306 7.23132 14.6787 7.14459 14.7597C7.05786 14.8406 7.00204 14.9492 6.98675 15.0668C6.70795 16.6509 6.99465 18.2826 7.79675 19.6768C5.42819 19.1043 3.29007 17.8242 1.66675 16.0068C1.59852 15.9233 1.50364 15.8658 1.39803 15.844C1.29243 15.8221 1.18253 15.8372 1.08675 15.8868C0.989056 15.931 0.908131 16.0053 0.855916 16.0989C0.8037 16.1926 0.78296 16.3005 0.796754 16.4068C1.17979 18.7825 2.42608 20.9332 4.29675 22.4468Z" fill="#00C853"/>
<path d="M11.7867 25C11.9194 25 12.0465 24.9563 12.1403 24.8786C12.2341 24.8009 12.2867 24.6955 12.2867 24.5856L12.2867 22.5635C12.2868 22.5033 12.2707 22.4437 12.2396 22.3893C12.2084 22.3348 12.1631 22.2867 12.1067 22.2486C11.8758 22.0905 11.5863 22.0027 11.2867 22L11.2867 25L11.7867 25Z" fill="#5B4036"/>
<path d="M10.7867 25L11.2867 25L11.2867 22C10.991 22.001 10.7061 22.0925 10.4867 22.2569C10.428 22.2925 10.3796 22.3385 10.345 22.3915C10.3104 22.4446 10.2905 22.5033 10.2867 22.5635L10.2867 24.5856C10.2867 24.6955 10.3394 24.8009 10.4332 24.8786C10.527 24.9563 10.6541 25 10.7867 25Z" fill="#795548"/>
<path fill-rule="evenodd" clip-rule="evenodd" d="M1.66677 16.0168C1.61325 15.9531 1.5388 15.9106 1.45676 15.8968V15.9368C0.826576 14.682 0.444443 13.3221 0.326267 11.9316C2.76063 10.5246 6.41085 9.60406 10.3082 9.43704C14.5068 9.25711 18.9005 9.956 22.2592 11.7785C22.1568 13.2223 21.7701 14.636 21.1168 15.9368C21.0588 15.9478 21.0041 15.9717 20.9568 16.0068C19.6951 17.0703 18.2473 17.8908 16.6868 18.4268C16.911 17.6736 16.9545 16.8782 16.8137 16.105C16.673 15.3318 16.352 14.6027 15.8768 13.9768C15.8291 13.9127 15.7674 13.8604 15.6963 13.824C15.6252 13.7875 15.5466 13.768 15.4668 13.7668H15.4068C15.3182 13.7772 15.2341 13.8116 15.1636 13.8662C15.0932 13.9208 15.0389 13.9937 15.0068 14.0768C14.3068 15.7768 13.0068 18.2668 12.1768 18.7768C11.2309 18.5492 10.3565 18.0901 9.63213 17.4408C8.90773 16.7914 8.35608 15.9722 8.02676 15.0568C7.99752 14.9419 7.92912 14.8407 7.83333 14.7707C7.73755 14.7008 7.62037 14.6664 7.50196 14.6735C7.38356 14.6806 7.27134 14.7288 7.1846 14.8097C7.09787 14.8906 7.04206 14.9992 7.02676 15.1168C6.74797 16.7009 7.03466 18.3326 7.83677 19.7268C5.44886 19.1508 3.29524 17.8559 1.66677 16.0168ZM22.2816 10.6622C21.3402 10.1895 20.3345 9.79727 19.2868 9.47994V8.00015C19.2868 7.72401 19.0629 7.50015 18.7868 7.50015C18.5106 7.50015 18.2868 7.72401 18.2868 8.00015V9.20267C15.7191 8.55403 12.9504 8.32475 10.2868 8.43705V6.50003C10.2868 6.22389 10.0629 6.00003 9.78677 6.00003C9.51062 6.00003 9.28677 6.22389 9.28677 6.50003V8.49551C7.16219 8.65449 5.10825 9.03096 3.28677 9.59537V8.50003C3.28677 8.22389 3.06291 8.00003 2.78677 8.00003C2.51062 8.00003 2.28677 8.22389 2.28677 8.50003V9.93284C1.57187 10.195 0.901924 10.4884 0.288391 10.8109C0.290058 10.7141 0.293003 10.6172 0.297237 10.5202C0.379108 8.64536 0.939293 6.8226 1.92451 5.22534C2.90972 3.62808 4.2872 2.30944 5.92591 1.39485C7.56464 0.480253 9.4101 0.00012207 11.2868 0.00012207C13.1634 0.000123978 15.0089 0.480255 16.6476 1.39485C18.2863 2.30944 19.6638 3.62809 20.649 5.22534C21.6342 6.8226 22.1944 8.64536 22.2763 10.5202C22.2784 10.5676 22.2801 10.6149 22.2816 10.6622Z" fill="#D50000"/>
</svg>
