<svg width="141" height="25" viewBox="0 0 141 25" fill="none" xmlns="http://www.w3.org/2000/svg">
<path d="M33.772 5.966C33.7427 5.59933 33.6767 5.32067 33.574 5.13C33.4713 4.93933 33.354 4.8 33.222 4.712C33.09 4.59467 32.9507 4.52867 32.804 4.514C32.672 4.49933 32.4227 4.492 32.056 4.492L31.946 4.404L31.88 3.568L31.924 3.48C32.0267 3.48 32.1733 3.48733 32.364 3.502C32.5547 3.51667 32.76 3.53133 32.98 3.546C33.2 3.56067 33.4127 3.57533 33.618 3.59C33.838 3.60467 34.0287 3.612 34.19 3.612H36.324C36.5 3.612 36.72 3.612 36.984 3.612C37.2627 3.59733 37.5413 3.58267 37.82 3.568C38.0987 3.55333 38.3627 3.546 38.612 3.546C38.876 3.53133 39.096 3.524 39.272 3.524C40.416 3.524 41.4353 3.722 42.33 4.118C43.2393 4.49933 44.002 5.02 44.618 5.68C45.234 6.34 45.7033 7.11 46.026 7.99C46.3633 8.87 46.532 9.80133 46.532 10.784C46.532 11.752 46.3707 12.676 46.048 13.556C45.74 14.4213 45.278 15.1913 44.662 15.866C44.046 16.526 43.276 17.054 42.352 17.45C41.428 17.846 40.3573 18.044 39.14 18.044C39.0227 18.044 38.8393 18.0367 38.59 18.022C38.3553 18.022 38.0987 18.022 37.82 18.022C37.556 18.022 37.292 18.0147 37.028 18C36.7787 18 36.5807 18 36.434 18H34.388C34.2853 18 34.1167 18.0073 33.882 18.022C33.6473 18.0367 33.4053 18.0513 33.156 18.066C32.9067 18.0807 32.6647 18.0953 32.43 18.11C32.1953 18.1247 32.0267 18.132 31.924 18.132L31.88 18.044L31.946 17.208L32.056 17.12C32.232 17.12 32.4373 17.1127 32.672 17.098C32.9067 17.0687 33.09 17.01 33.222 16.922C33.3393 16.834 33.4493 16.6947 33.552 16.504C33.6547 16.3133 33.728 16.0273 33.772 15.646C33.772 15.5433 33.772 15.426 33.772 15.294C33.7867 15.1473 33.794 14.9713 33.794 14.766C33.8087 14.5607 33.816 14.3113 33.816 14.018C33.816 13.7247 33.816 13.358 33.816 12.918V9.332C33.816 9.18533 33.816 8.96533 33.816 8.672C33.816 8.364 33.816 8.04133 33.816 7.704C33.816 7.36667 33.8087 7.03667 33.794 6.714C33.794 6.39133 33.7867 6.142 33.772 5.966ZM38.414 16.284C39.294 16.284 40.0713 16.1447 40.746 15.866C41.4207 15.5727 41.9853 15.1767 42.44 14.678C42.9093 14.1793 43.2613 13.6 43.496 12.94C43.7453 12.2653 43.87 11.5467 43.87 10.784C43.87 9.992 43.7453 9.266 43.496 8.606C43.2467 7.93133 42.88 7.352 42.396 6.868C41.9267 6.384 41.3473 6.01 40.658 5.746C39.9687 5.46733 39.184 5.328 38.304 5.328H36.368C36.3387 5.75333 36.3167 6.11267 36.302 6.406C36.302 6.68467 36.2947 6.97067 36.28 7.264C36.2653 7.55733 36.258 7.88 36.258 8.232C36.258 8.56933 36.258 9.002 36.258 9.53V12.258C36.258 13.138 36.258 13.8273 36.258 14.326C36.2727 14.81 36.2947 15.1767 36.324 15.426C36.368 15.8073 36.4633 16.0493 36.61 16.152C36.7567 16.24 37.0207 16.284 37.402 16.284H38.414ZM53.7465 7.55C54.6118 7.55 55.3818 7.704 56.0565 8.012C56.7311 8.30533 57.2958 8.70867 57.7505 9.222C58.2198 9.72067 58.5718 10.3 58.8065 10.96C59.0558 11.62 59.1805 12.302 59.1805 13.006C59.1805 13.6807 59.0705 14.3333 58.8505 14.964C58.6305 15.5947 58.2931 16.152 57.8385 16.636C57.3838 17.12 56.8191 17.5087 56.1445 17.802C55.4698 18.0953 54.6851 18.242 53.7905 18.242C52.8665 18.242 52.0598 18.088 51.3705 17.78C50.6811 17.472 50.1091 17.0687 49.6545 16.57C49.2145 16.0713 48.8845 15.5067 48.6645 14.876C48.4445 14.2307 48.3345 13.5707 48.3345 12.896C48.3345 12.1773 48.4591 11.4953 48.7085 10.85C48.9578 10.2047 49.3098 9.64 49.7645 9.156C50.2338 8.65733 50.7985 8.26867 51.4585 7.99C52.1331 7.69667 52.8958 7.55 53.7465 7.55ZM53.7685 16.724C54.2231 16.724 54.6191 16.6213 54.9565 16.416C55.3085 16.196 55.6018 15.9173 55.8365 15.58C56.0711 15.228 56.2398 14.832 56.3425 14.392C56.4598 13.9373 56.5185 13.4753 56.5185 13.006C56.5185 12.5513 56.4525 12.0967 56.3205 11.642C56.2031 11.1727 56.0198 10.7547 55.7705 10.388C55.5358 10.0213 55.2425 9.72067 54.8905 9.486C54.5385 9.25133 54.1351 9.134 53.6805 9.134C53.2111 9.134 52.8005 9.244 52.4485 9.464C52.1111 9.684 51.8325 9.97 51.6125 10.322C51.3925 10.674 51.2238 11.07 51.1065 11.51C51.0038 11.95 50.9525 12.3973 50.9525 12.852C50.9525 13.3213 51.0111 13.7833 51.1285 14.238C51.2605 14.6927 51.4438 15.1107 51.6785 15.492C51.9278 15.8587 52.2285 16.1593 52.5805 16.394C52.9325 16.614 53.3285 16.724 53.7685 16.724ZM64.4269 10.212C64.5736 9.93333 64.7349 9.64 64.9109 9.332C65.1016 9.024 65.3143 8.738 65.5489 8.474C65.7836 8.21 66.0476 7.99 66.3409 7.814C66.6489 7.638 66.9936 7.55 67.3749 7.55C67.4923 7.55 67.6316 7.56467 67.7929 7.594C67.9689 7.60867 68.1376 7.638 68.2989 7.682C68.4749 7.726 68.6436 7.77733 68.8049 7.836C68.9663 7.89467 69.0909 7.96067 69.1789 8.034L69.3329 8.166L69.0689 10.542H68.1229C68.0789 10.366 67.9616 10.19 67.7709 10.014C67.5949 9.82333 67.3163 9.728 66.9349 9.728C66.5976 9.728 66.2896 9.816 66.0109 9.992C65.7323 10.1533 65.4903 10.3587 65.2849 10.608C65.0796 10.8573 64.9183 11.1287 64.8009 11.422C64.6836 11.7007 64.6249 11.9573 64.6249 12.192V13.71C64.6249 14.2673 64.6249 14.6853 64.6249 14.964C64.6396 15.2427 64.6543 15.4847 64.6689 15.69C64.6983 16.0127 64.7349 16.2767 64.7789 16.482C64.8376 16.6727 64.9256 16.8193 65.0429 16.922C65.1016 16.9807 65.1896 17.032 65.3069 17.076C65.4389 17.1053 65.5709 17.1273 65.7029 17.142C65.8349 17.1567 65.9596 17.164 66.0769 17.164C66.2089 17.164 66.3116 17.164 66.3849 17.164L66.4949 17.274L66.5389 18L66.4949 18.088C66.4069 18.088 66.2603 18.0807 66.0549 18.066C65.8496 18.0513 65.6296 18.0367 65.3949 18.022C65.1603 18.022 64.9403 18.0147 64.7349 18C64.5296 18 64.3829 18 64.2949 18H62.8869C62.7843 18 62.6229 18 62.4029 18C62.1976 18.0147 61.9776 18.022 61.7429 18.022C61.5083 18.0367 61.2809 18.0513 61.0609 18.066C60.8556 18.0807 60.7016 18.088 60.5989 18.088L60.5769 18L60.6209 17.252L60.6869 17.164C60.9363 17.164 61.1709 17.1567 61.3909 17.142C61.6109 17.1127 61.7796 17.0393 61.8969 16.922C62.0143 16.8193 62.0949 16.6873 62.1389 16.526C62.1976 16.3647 62.2416 16.086 62.2709 15.69C62.2856 15.514 62.2929 15.2793 62.2929 14.986C62.2929 14.6927 62.2929 14.282 62.2929 13.754V12.148C62.2929 11.84 62.2929 11.5833 62.2929 11.378C62.2929 11.158 62.2856 10.9673 62.2709 10.806C62.2709 10.6447 62.2636 10.498 62.2489 10.366C62.2489 10.234 62.2416 10.0947 62.2269 9.948C62.1976 9.80133 62.1536 9.662 62.0949 9.53C62.0363 9.398 61.9849 9.31 61.9409 9.266C61.7943 9.07533 61.6109 8.96533 61.3909 8.936C61.1709 8.90667 60.9436 8.892 60.7089 8.892L60.6209 8.804V8.056L60.7089 7.99H61.1049C61.4276 7.99 61.8456 7.99 62.3589 7.99C62.8723 7.97533 63.3196 7.946 63.7009 7.902L64.4709 7.792L64.6029 8.21C64.5149 8.48867 64.4489 8.804 64.4049 9.156C64.3756 9.508 64.3609 9.85267 64.3609 10.19L64.4269 10.212ZM75.7465 7.55C76.6118 7.55 77.3818 7.704 78.0565 8.012C78.7311 8.30533 79.2958 8.70867 79.7505 9.222C80.2198 9.72067 80.5718 10.3 80.8065 10.96C81.0558 11.62 81.1805 12.302 81.1805 13.006C81.1805 13.6807 81.0705 14.3333 80.8505 14.964C80.6305 15.5947 80.2931 16.152 79.8385 16.636C79.3838 17.12 78.8191 17.5087 78.1445 17.802C77.4698 18.0953 76.6851 18.242 75.7905 18.242C74.8665 18.242 74.0598 18.088 73.3705 17.78C72.6811 17.472 72.1091 17.0687 71.6545 16.57C71.2145 16.0713 70.8845 15.5067 70.6645 14.876C70.4445 14.2307 70.3345 13.5707 70.3345 12.896C70.3345 12.1773 70.4591 11.4953 70.7085 10.85C70.9578 10.2047 71.3098 9.64 71.7645 9.156C72.2338 8.65733 72.7985 8.26867 73.4585 7.99C74.1331 7.69667 74.8958 7.55 75.7465 7.55ZM75.7685 16.724C76.2231 16.724 76.6191 16.6213 76.9565 16.416C77.3085 16.196 77.6018 15.9173 77.8365 15.58C78.0711 15.228 78.2398 14.832 78.3425 14.392C78.4598 13.9373 78.5185 13.4753 78.5185 13.006C78.5185 12.5513 78.4525 12.0967 78.3205 11.642C78.2031 11.1727 78.0198 10.7547 77.7705 10.388C77.5358 10.0213 77.2425 9.72067 76.8905 9.486C76.5385 9.25133 76.1351 9.134 75.6805 9.134C75.2111 9.134 74.8005 9.244 74.4485 9.464C74.1111 9.684 73.8325 9.97 73.6125 10.322C73.3925 10.674 73.2238 11.07 73.1065 11.51C73.0038 11.95 72.9525 12.3973 72.9525 12.852C72.9525 13.3213 73.0111 13.7833 73.1285 14.238C73.2605 14.6927 73.4438 15.1107 73.6785 15.492C73.9278 15.8587 74.2285 16.1593 74.5805 16.394C74.9325 16.614 75.3285 16.724 75.7685 16.724ZM86.4489 9.508C86.9183 8.804 87.4756 8.30533 88.1209 8.012C88.7663 7.704 89.4336 7.55 90.1229 7.55C90.6363 7.55 91.1716 7.64533 91.7289 7.836C92.3009 8.012 92.8143 8.31267 93.2689 8.738C93.7383 9.14867 94.1196 9.69867 94.4129 10.388C94.7209 11.0627 94.8749 11.8987 94.8749 12.896C94.8749 13.5707 94.7723 14.2307 94.5669 14.876C94.3763 15.5067 94.0756 16.0713 93.6649 16.57C93.2689 17.0687 92.7629 17.472 92.1469 17.78C91.5309 18.088 90.8049 18.242 89.9689 18.242C89.1769 18.242 88.4729 18.044 87.8569 17.648C87.2556 17.252 86.7423 16.7313 86.3169 16.086L86.2509 16.13C86.2803 16.3793 86.2949 16.6507 86.2949 16.944C86.3096 17.2227 86.3169 17.6333 86.3169 18.176C86.3169 18.66 86.3169 19.0707 86.3169 19.408C86.3169 19.7453 86.3169 20.0387 86.3169 20.288C86.3316 20.5373 86.3389 20.75 86.3389 20.926C86.3536 21.1167 86.3683 21.3073 86.3829 21.498C86.4123 21.7913 86.4416 22.0187 86.4709 22.18C86.5149 22.3413 86.5956 22.466 86.7129 22.554C86.8303 22.6713 87.0136 22.7447 87.2629 22.774C87.5123 22.8033 87.7543 22.818 87.9889 22.818L88.0549 22.884L88.0989 23.654L88.0769 23.72C87.9743 23.72 87.8129 23.7127 87.5929 23.698C87.3729 23.698 87.1456 23.6907 86.9109 23.676C86.6763 23.676 86.4489 23.6687 86.2289 23.654C86.0089 23.654 85.8476 23.654 85.7449 23.654H84.6009C84.4983 23.654 84.3443 23.654 84.1389 23.654C83.9336 23.6687 83.7136 23.676 83.4789 23.676C83.2443 23.6907 83.0243 23.698 82.8189 23.698C82.6136 23.7127 82.4596 23.72 82.3569 23.72L82.3129 23.654L82.3569 22.906L82.4669 22.818C82.6869 22.818 82.8996 22.8033 83.1049 22.774C83.3249 22.7593 83.4936 22.686 83.6109 22.554C83.7283 22.466 83.8016 22.3413 83.8309 22.18C83.8749 22.0187 83.9116 21.7913 83.9409 21.498C83.9556 21.2487 83.9629 21.014 83.9629 20.794C83.9776 20.5887 83.9849 20.354 83.9849 20.09C83.9996 19.826 84.0069 19.5033 84.0069 19.122C84.0216 18.7553 84.0289 18.2713 84.0289 17.67V13.908C84.0289 13.3067 84.0289 12.8153 84.0289 12.434C84.0289 12.038 84.0216 11.7007 84.0069 11.422C84.0069 11.1433 83.9996 10.894 83.9849 10.674C83.9703 10.454 83.9556 10.212 83.9409 9.948C83.9263 9.78667 83.8896 9.64733 83.8309 9.53C83.7723 9.398 83.7209 9.31 83.6769 9.266C83.5449 9.09 83.3689 8.98733 83.1489 8.958C82.9289 8.914 82.6943 8.892 82.4449 8.892L82.3569 8.804V8.056L82.4449 7.99H82.8409C83.0169 7.99 83.2223 7.99 83.4569 7.99C83.6916 7.99 83.9336 7.99 84.1829 7.99C84.4469 7.97533 84.6963 7.968 84.9309 7.968C85.1803 7.95333 85.4003 7.93133 85.5909 7.902L86.3609 7.792L86.4929 8.21C86.4489 8.31267 86.4196 8.50333 86.4049 8.782C86.3903 9.046 86.3829 9.27333 86.3829 9.464L86.4489 9.508ZM92.3229 12.83C92.3229 12.39 92.2643 11.9647 92.1469 11.554C92.0443 11.1287 91.8829 10.7547 91.6629 10.432C91.4429 10.0947 91.1569 9.83067 90.8049 9.64C90.4676 9.43467 90.0643 9.332 89.5949 9.332C89.0963 9.332 88.6489 9.42 88.2529 9.596C87.8716 9.75733 87.5416 9.96267 87.2629 10.212C86.9989 10.4467 86.7863 10.696 86.6249 10.96C86.4783 11.224 86.3976 11.4513 86.3829 11.642V14.084C86.4123 14.2747 86.4929 14.5093 86.6249 14.788C86.7716 15.052 86.9696 15.316 87.2189 15.58C87.4829 15.8293 87.8056 16.042 88.1869 16.218C88.5683 16.394 89.0229 16.482 89.5509 16.482C90.0349 16.482 90.4529 16.3793 90.8049 16.174C91.1569 15.954 91.4429 15.6753 91.6629 15.338C91.8976 15.0007 92.0663 14.612 92.1689 14.172C92.2716 13.732 92.3229 13.2847 92.3229 12.83ZM101.871 7.55C102.737 7.55 103.507 7.704 104.181 8.012C104.856 8.30533 105.421 8.70867 105.875 9.222C106.345 9.72067 106.697 10.3 106.931 10.96C107.181 11.62 107.305 12.302 107.305 13.006C107.305 13.6807 107.195 14.3333 106.975 14.964C106.755 15.5947 106.418 16.152 105.963 16.636C105.509 17.12 104.944 17.5087 104.269 17.802C103.595 18.0953 102.81 18.242 101.915 18.242C100.991 18.242 100.185 18.088 99.4955 17.78C98.8061 17.472 98.2341 17.0687 97.7795 16.57C97.3395 16.0713 97.0095 15.5067 96.7895 14.876C96.5695 14.2307 96.4595 13.5707 96.4595 12.896C96.4595 12.1773 96.5841 11.4953 96.8335 10.85C97.0828 10.2047 97.4348 9.64 97.8895 9.156C98.3588 8.65733 98.9235 8.26867 99.5835 7.99C100.258 7.69667 101.021 7.55 101.871 7.55ZM101.893 16.724C102.348 16.724 102.744 16.6213 103.081 16.416C103.433 16.196 103.727 15.9173 103.961 15.58C104.196 15.228 104.365 14.832 104.467 14.392C104.585 13.9373 104.643 13.4753 104.643 13.006C104.643 12.5513 104.577 12.0967 104.445 11.642C104.328 11.1727 104.145 10.7547 103.895 10.388C103.661 10.0213 103.367 9.72067 103.015 9.486C102.663 9.25133 102.26 9.134 101.805 9.134C101.336 9.134 100.925 9.244 100.573 9.464C100.236 9.684 99.9575 9.97 99.7375 10.322C99.5175 10.674 99.3488 11.07 99.2315 11.51C99.1288 11.95 99.0775 12.3973 99.0775 12.852C99.0775 13.3213 99.1361 13.7833 99.2535 14.238C99.3855 14.6927 99.5688 15.1107 99.8035 15.492C100.053 15.8587 100.353 16.1593 100.705 16.394C101.057 16.614 101.453 16.724 101.893 16.724ZM108.746 8.056L108.834 7.99H109.934C110.271 7.99 110.631 7.99 111.012 7.99C111.408 7.97533 111.753 7.946 112.046 7.902L112.816 7.792L112.948 8.21C112.919 8.28333 112.889 8.386 112.86 8.518C112.845 8.63533 112.823 8.76733 112.794 8.914C112.779 9.06067 112.765 9.20733 112.75 9.354C112.735 9.486 112.728 9.60333 112.728 9.706L112.794 9.75C112.955 9.45667 113.139 9.178 113.344 8.914C113.564 8.63533 113.813 8.40067 114.092 8.21C114.371 8.00467 114.686 7.84333 115.038 7.726C115.39 7.60867 115.793 7.55 116.248 7.55C117.055 7.55 117.773 7.75533 118.404 8.166C119.049 8.57667 119.511 9.14867 119.79 9.882C119.951 9.618 120.142 9.34667 120.362 9.068C120.582 8.78933 120.839 8.54 121.132 8.32C121.425 8.08533 121.755 7.902 122.122 7.77C122.503 7.62333 122.929 7.55 123.398 7.55C123.853 7.55 124.293 7.60867 124.718 7.726C125.143 7.84333 125.532 8.02667 125.884 8.276C126.236 8.52533 126.537 8.84067 126.786 9.222C127.035 9.60333 127.211 10.0653 127.314 10.608C127.387 10.9893 127.424 11.3927 127.424 11.818C127.439 12.2433 127.446 12.6687 127.446 13.094V15.844C127.446 16.1373 127.483 16.35 127.556 16.482C127.644 16.614 127.725 16.7387 127.798 16.856C127.901 17.0027 128.062 17.0907 128.282 17.12C128.517 17.1493 128.751 17.164 128.986 17.164L129.074 17.252L129.118 18L129.074 18.088C128.81 18.0587 128.524 18.0367 128.216 18.022C127.908 18.0073 127.607 18 127.314 18C126.419 18 125.613 18.022 124.894 18.066L124.74 17.626C124.784 17.4353 124.821 17.186 124.85 16.878C124.894 16.57 124.923 16.2987 124.938 16.064C124.953 15.8733 124.96 15.624 124.96 15.316C124.975 15.008 124.989 14.7 125.004 14.392C125.019 14.0693 125.026 13.776 125.026 13.512C125.041 13.2333 125.048 13.0207 125.048 12.874C125.048 12.5807 125.033 12.214 125.004 11.774C124.989 11.3193 124.945 10.938 124.872 10.63C124.755 10.2487 124.535 9.96267 124.212 9.772C123.889 9.56667 123.53 9.464 123.134 9.464C122.753 9.464 122.401 9.52267 122.078 9.64C121.77 9.74267 121.491 9.87467 121.242 10.036C120.993 10.1973 120.78 10.3807 120.604 10.586C120.443 10.7913 120.318 10.982 120.23 11.158C120.259 11.4807 120.274 11.8033 120.274 12.126C120.289 12.4487 120.296 12.7713 120.296 13.094V15.844C120.296 16.152 120.325 16.3793 120.384 16.526C120.457 16.6727 120.553 16.8047 120.67 16.922C120.802 17.0393 120.963 17.1127 121.154 17.142C121.359 17.1567 121.572 17.164 121.792 17.164L121.902 17.274L121.946 18L121.902 18.088C121.799 18.088 121.645 18.0807 121.44 18.066C121.235 18.0513 121.015 18.0367 120.78 18.022C120.545 18.022 120.325 18.0147 120.12 18C119.915 18 119.761 18 119.658 18H118.47C118.367 18 118.206 18 117.986 18C117.781 18.0147 117.561 18.022 117.326 18.022C117.106 18.0367 116.886 18.0513 116.666 18.066C116.461 18.0807 116.307 18.088 116.204 18.088L116.16 18L116.204 17.252L116.292 17.164C116.527 17.164 116.747 17.1567 116.952 17.142C117.172 17.1127 117.341 17.0393 117.458 16.922C117.575 16.8193 117.656 16.6873 117.7 16.526C117.759 16.3647 117.795 16.1373 117.81 15.844C117.81 15.668 117.817 15.4407 117.832 15.162C117.847 14.8687 117.854 14.5753 117.854 14.282C117.869 13.9887 117.876 13.7173 117.876 13.468C117.891 13.204 117.898 13.006 117.898 12.874C117.898 12.7273 117.898 12.5587 117.898 12.368C117.898 12.1627 117.891 11.9573 117.876 11.752C117.861 11.5467 117.839 11.3487 117.81 11.158C117.795 10.9673 117.766 10.7913 117.722 10.63C117.59 10.2487 117.363 9.96267 117.04 9.772C116.732 9.56667 116.38 9.464 115.984 9.464C115.5 9.464 115.06 9.54467 114.664 9.706C114.268 9.86733 113.923 10.0653 113.63 10.3C113.351 10.5347 113.131 10.7767 112.97 11.026C112.823 11.2753 112.75 11.4953 112.75 11.686V13.71C112.75 14.0327 112.75 14.2967 112.75 14.502C112.765 14.7073 112.772 14.8833 112.772 15.03C112.787 15.1767 112.794 15.316 112.794 15.448C112.809 15.5653 112.823 15.6973 112.838 15.844C112.867 16.152 112.933 16.3867 113.036 16.548C113.139 16.6947 113.271 16.834 113.432 16.966C113.549 17.0687 113.681 17.1273 113.828 17.142C113.989 17.1567 114.158 17.164 114.334 17.164L114.444 17.274L114.488 18L114.444 18.088C114.341 18.088 114.18 18.0807 113.96 18.066C113.755 18.0513 113.535 18.0367 113.3 18.022C113.08 18.022 112.86 18.0147 112.64 18C112.435 18 112.281 18 112.178 18H110.99C110.887 18 110.726 18 110.506 18C110.301 18.0147 110.081 18.022 109.846 18.022C109.626 18.0367 109.406 18.0513 109.186 18.066C108.981 18.0807 108.827 18.088 108.724 18.088L108.702 18L108.746 17.252L108.812 17.164C109.047 17.164 109.259 17.1493 109.45 17.12C109.655 17.0907 109.817 17.0173 109.934 16.9C110.037 16.7973 110.125 16.6727 110.198 16.526C110.271 16.3647 110.323 16.1373 110.352 15.844C110.367 15.6093 110.381 15.3747 110.396 15.14C110.411 14.8907 110.418 14.502 110.418 13.974V12.148C110.418 11.84 110.418 11.5833 110.418 11.378C110.418 11.158 110.411 10.9673 110.396 10.806C110.396 10.6447 110.389 10.498 110.374 10.366C110.374 10.234 110.367 10.0947 110.352 9.948C110.323 9.80133 110.279 9.662 110.22 9.53C110.161 9.398 110.11 9.31 110.066 9.266C109.919 9.07533 109.736 8.96533 109.516 8.936C109.296 8.90667 109.069 8.892 108.834 8.892L108.746 8.804V8.056ZM135.473 7.55C136.338 7.55 137.108 7.704 137.783 8.012C138.458 8.30533 139.022 8.70867 139.477 9.222C139.946 9.72067 140.298 10.3 140.533 10.96C140.782 11.62 140.907 12.302 140.907 13.006C140.907 13.6807 140.797 14.3333 140.577 14.964C140.357 15.5947 140.02 16.152 139.565 16.636C139.11 17.12 138.546 17.5087 137.871 17.802C137.196 18.0953 136.412 18.242 135.517 18.242C134.593 18.242 133.786 18.088 133.097 17.78C132.408 17.472 131.836 17.0687 131.381 16.57C130.941 16.0713 130.611 15.5067 130.391 14.876C130.171 14.2307 130.061 13.5707 130.061 12.896C130.061 12.1773 130.186 11.4953 130.435 10.85C130.684 10.2047 131.036 9.64 131.491 9.156C131.96 8.65733 132.525 8.26867 133.185 7.99C133.86 7.69667 134.622 7.55 135.473 7.55ZM135.495 16.724C135.95 16.724 136.346 16.6213 136.683 16.416C137.035 16.196 137.328 15.9173 137.563 15.58C137.798 15.228 137.966 14.832 138.069 14.392C138.186 13.9373 138.245 13.4753 138.245 13.006C138.245 12.5513 138.179 12.0967 138.047 11.642C137.93 11.1727 137.746 10.7547 137.497 10.388C137.262 10.0213 136.969 9.72067 136.617 9.486C136.265 9.25133 135.862 9.134 135.407 9.134C134.938 9.134 134.527 9.244 134.175 9.464C133.838 9.684 133.559 9.97 133.339 10.322C133.119 10.674 132.95 11.07 132.833 11.51C132.73 11.95 132.679 12.3973 132.679 12.852C132.679 13.3213 132.738 13.7833 132.855 14.238C132.987 14.6927 133.17 15.1107 133.405 15.492C133.654 15.8587 133.955 16.1593 134.307 16.394C134.659 16.614 135.055 16.724 135.495 16.724Z" fill="black"/>
<path d="M4.29675 22.4468C5.25589 23.0879 6.34005 23.5183 7.47772 23.7096C8.61538 23.9009 9.78069 23.8489 10.8968 23.5568C10.9787 23.5408 11.0548 23.5028 11.1168 23.4468C11.1672 23.4045 11.2309 23.3813 11.2968 23.3813C11.3626 23.3813 11.4263 23.4045 11.4768 23.4468C11.5107 23.4848 11.5523 23.5151 11.5989 23.5358C11.6454 23.5565 11.6958 23.5671 11.7468 23.5668C13.8757 24.1404 16.1452 23.8454 18.0568 22.7468C19.9368 21.5468 21.1968 19.4268 21.7768 16.4568C21.7956 16.3545 21.7826 16.249 21.7397 16.1542C21.6968 16.0595 21.626 15.9802 21.5368 15.9268C21.4448 15.8743 21.338 15.8537 21.2331 15.8681C21.1282 15.8826 21.0311 15.9314 20.9568 16.0068C19.6847 17.0817 18.2229 17.9092 16.6468 18.4468C16.8693 17.6951 16.9119 16.9015 16.7712 16.1302C16.6305 15.3589 16.3104 14.6316 15.8368 14.0068C15.7891 13.9427 15.7274 13.8904 15.6563 13.8539C15.5852 13.8175 15.5066 13.798 15.4268 13.7968L15.3668 13.7968C15.2782 13.8072 15.1941 13.8416 15.1236 13.8962C15.0531 13.9508 14.9989 14.0236 14.9668 14.1068C14.2668 15.8068 12.9668 18.2968 12.1368 18.8068C11.1821 18.5716 10.3019 18.1004 9.57675 17.4365C8.85164 16.7725 8.30492 15.9371 7.98675 15.0068C7.95751 14.8919 7.8891 14.7907 7.79332 14.7207C7.69753 14.6508 7.58036 14.6164 7.46195 14.6235C7.34355 14.6306 7.23132 14.6787 7.14459 14.7597C7.05786 14.8406 7.00204 14.9492 6.98675 15.0668C6.70795 16.6509 6.99465 18.2826 7.79675 19.6768C5.42819 19.1043 3.29007 17.8242 1.66675 16.0068C1.59852 15.9233 1.50364 15.8658 1.39803 15.844C1.29243 15.8221 1.18253 15.8372 1.08675 15.8868C0.989056 15.931 0.908131 16.0053 0.855916 16.0989C0.8037 16.1926 0.78296 16.3005 0.796754 16.4068C1.17979 18.7825 2.42608 20.9332 4.29675 22.4468Z" fill="#00C853"/>
<path d="M11.7867 25C11.9194 25 12.0465 24.9563 12.1403 24.8786C12.2341 24.8009 12.2867 24.6955 12.2867 24.5856L12.2867 22.5635C12.2868 22.5033 12.2707 22.4437 12.2396 22.3893C12.2084 22.3348 12.1631 22.2867 12.1067 22.2486C11.8758 22.0905 11.5863 22.0027 11.2867 22L11.2867 25L11.7867 25Z" fill="#5B4036"/>
<path d="M10.7867 25L11.2867 25L11.2867 22C10.991 22.001 10.7061 22.0925 10.4867 22.2569C10.428 22.2925 10.3796 22.3385 10.345 22.3915C10.3104 22.4446 10.2905 22.5033 10.2867 22.5635L10.2867 24.5856C10.2867 24.6955 10.3394 24.8009 10.4332 24.8786C10.527 24.9563 10.6541 25 10.7867 25Z" fill="#795548"/>
<path fill-rule="evenodd" clip-rule="evenodd" d="M1.66677 16.0168C1.61325 15.9531 1.5388 15.9106 1.45676 15.8968V15.9368C0.826576 14.682 0.444443 13.3221 0.326267 11.9316C2.76063 10.5246 6.41085 9.60406 10.3082 9.43704C14.5068 9.25711 18.9005 9.956 22.2592 11.7785C22.1568 13.2223 21.7701 14.636 21.1168 15.9368C21.0588 15.9478 21.0041 15.9717 20.9568 16.0068C19.6951 17.0703 18.2473 17.8908 16.6868 18.4268C16.911 17.6736 16.9545 16.8782 16.8137 16.105C16.673 15.3318 16.352 14.6027 15.8768 13.9768C15.8291 13.9127 15.7674 13.8604 15.6963 13.824C15.6252 13.7875 15.5466 13.768 15.4668 13.7668H15.4068C15.3182 13.7772 15.2341 13.8116 15.1636 13.8662C15.0932 13.9208 15.0389 13.9937 15.0068 14.0768C14.3068 15.7768 13.0068 18.2668 12.1768 18.7768C11.2309 18.5492 10.3565 18.0901 9.63213 17.4408C8.90773 16.7914 8.35608 15.9722 8.02676 15.0568C7.99752 14.9419 7.92912 14.8407 7.83333 14.7707C7.73755 14.7008 7.62037 14.6664 7.50196 14.6735C7.38356 14.6806 7.27134 14.7288 7.1846 14.8097C7.09787 14.8906 7.04206 14.9992 7.02676 15.1168C6.74797 16.7009 7.03466 18.3326 7.83677 19.7268C5.44886 19.1508 3.29524 17.8559 1.66677 16.0168ZM22.2816 10.6622C21.3402 10.1895 20.3345 9.79727 19.2868 9.47994V8.00015C19.2868 7.72401 19.0629 7.50015 18.7868 7.50015C18.5106 7.50015 18.2868 7.72401 18.2868 8.00015V9.20267C15.7191 8.55403 12.9504 8.32475 10.2868 8.43705V6.50003C10.2868 6.22389 10.0629 6.00003 9.78677 6.00003C9.51062 6.00003 9.28677 6.22389 9.28677 6.50003V8.49551C7.16219 8.65449 5.10825 9.03096 3.28677 9.59537V8.50003C3.28677 8.22389 3.06291 8.00003 2.78677 8.00003C2.51062 8.00003 2.28677 8.22389 2.28677 8.50003V9.93284C1.57187 10.195 0.901924 10.4884 0.288391 10.8109C0.290058 10.7141 0.293003 10.6172 0.297237 10.5202C0.379108 8.64536 0.939293 6.8226 1.92451 5.22534C2.90972 3.62808 4.2872 2.30944 5.92591 1.39485C7.56464 0.480253 9.4101 0.00012207 11.2868 0.00012207C13.1634 0.000123978 15.0089 0.480255 16.6476 1.39485C18.2863 2.30944 19.6638 3.62809 20.649 5.22534C21.6342 6.8226 22.1944 8.64536 22.2763 10.5202C22.2784 10.5676 22.2801 10.6149 22.2816 10.6622Z" fill="#D50000"/>
</svg>
